<svg xmlns="http://www.w3.org/2000/svg" xmlns:xlink="http://www.w3.org/1999/xlink" viewBox="0 0 192.16 192.16"><defs><style>.cls-1,.cls-2{fill:none;}.cls-2{stroke:#000;stroke-width:0.3px;}.cls-3{isolation:isolate;}.cls-4{opacity:0.5;mix-blend-mode:soft-light;}.cls-5{fill:url(#Grid_.25_inch_Lines);}</style><pattern id="Grid_.25_inch_Lines" data-name="Grid .25 inch Lines" width="72" height="72" patternUnits="userSpaceOnUse" viewBox="0 0 72 72"><rect class="cls-1" width="72" height="72"/><line class="cls-2" x1="45" y1="71.75" x2="45" y2="144.25"/><line class="cls-2" x1="9" y1="71.75" x2="9" y2="144.25"/><line class="cls-2" x1="63" y1="71.75" x2="63" y2="144.25"/><line class="cls-2" x1="27" y1="71.75" x2="27" y2="144.25"/><line class="cls-2" x1="71.75" y1="9" x2="144.25" y2="9"/><line class="cls-2" x1="71.75" y1="45" x2="144.25" y2="45"/><line class="cls-2" x1="71.75" y1="27" x2="144.25" y2="27"/><line class="cls-2" x1="71.75" y1="63" x2="144.25" y2="63"/><line class="cls-2" x1="-0.25" y1="9" x2="72.25" y2="9"/><line class="cls-2" x1="-0.25" y1="45" x2="72.25" y2="45"/><line class="cls-2" x1="-0.25" y1="27" x2="72.25" y2="27"/><line class="cls-2" x1="-0.25" y1="63" x2="72.25" y2="63"/><line class="cls-2" x1="45" y1="-0.25" x2="45" y2="72.25"/><line class="cls-2" x1="9" y1="-0.25" x2="9" y2="72.25"/><line class="cls-2" x1="63" y1="-0.25" x2="63" y2="72.25"/><line class="cls-2" x1="27" y1="-0.25" x2="27" y2="72.25"/><line class="cls-2" x1="-72.25" y1="9" x2="0.25" y2="9"/><line class="cls-2" x1="-72.25" y1="45" x2="0.25" y2="45"/><line class="cls-2" x1="-72.25" y1="27" x2="0.25" y2="27"/><line class="cls-2" x1="-72.25" y1="63" x2="0.25" y2="63"/><line class="cls-2" x1="45" y1="-72.25" x2="45" y2="0.25"/><line class="cls-2" x1="9" y1="-72.25" x2="9" y2="0.25"/><line class="cls-2" x1="63" y1="-72.25" x2="63" y2="0.25"/><line class="cls-2" x1="27" y1="-72.25" x2="27" y2="0.25"/></pattern></defs><g class="cls-3"><g id="Layer_2" data-name="Layer 2"><g id="Layer_1-2" data-name="Layer 1"><g class="cls-4"><path class="cls-5" d="M141.91,0H50.25A50.25,50.25,0,0,0,0,50.25v91.66a50.25,50.25,0,0,0,50.25,50.25H192.16V50.25A50.25,50.25,0,0,0,141.91,0Z"/></g></g></g></g></svg>