<svg xmlns="http://www.w3.org/2000/svg" xmlns:xlink="http://www.w3.org/1999/xlink" viewBox="0 0 169.51 169.51"><defs><style>.cls-1,.cls-2{fill:none;}.cls-2{stroke:#555;stroke-width:0.3px;}.cls-3{isolation:isolate;}.cls-4{opacity:0.5;mix-blend-mode:soft-light;}.cls-5{fill:url(#Circles);}</style><pattern id="Circles" data-name="Circles" width="46.77" height="54" patternTransform="translate(89.23 -20)" patternUnits="userSpaceOnUse" viewBox="0 0 46.77 54"><rect class="cls-1" width="46.77" height="54"/><path class="cls-2" d="M41.06,21.58a1.5,1.5,0,1,0-2,.55A1.5,1.5,0,0,0,41.06,21.58Z"/><path class="cls-2" d="M39.81,29.92a1.5,1.5,0,1,0-.54,2A1.49,1.49,0,0,0,39.81,29.92Z"/><path class="cls-2" d="M31.56,16.83A1.5,1.5,0,1,0,29,18.33a1.5,1.5,0,1,0,2.59-1.5Z"/><path class="cls-2" d="M24,23.63a1.51,1.51,0,0,0-.55-2.05A1.5,1.5,0,1,0,24,23.63Z"/><path class="cls-2" d="M26.81,29.83a1.5,1.5,0,1,0-2.59,1.5,1.5,1.5,0,1,0,2.59-1.5Z"/><circle class="cls-2" cx="32.43" cy="36" r="1.5"/><path class="cls-2" d="M6.52,23.67a1.5,1.5,0,1,1,2.05.55A1.5,1.5,0,0,1,6.52,23.67Z"/><path class="cls-2" d="M7.15,31.25a1.5,1.5,0,1,1,.55,2A1.5,1.5,0,0,1,7.15,31.25Z"/><path class="cls-2" d="M12.42,16.42a1.5,1.5,0,1,1,.55,2A1.5,1.5,0,0,1,12.42,16.42Z"/><circle class="cls-2" cx="18" cy="35" r="1.5"/><path class="cls-2" d="M41,50a1.5,1.5,0,1,1-.55-2A1.5,1.5,0,0,1,41,50Z"/><path class="cls-2" d="M25.31,50.08a1.5,1.5,0,1,1-.54-2A1.5,1.5,0,0,1,25.31,50.08Z"/><circle class="cls-2" cx="31.18" cy="45" r="1.5"/><path class="cls-2" d="M5.77,50.38a1.5,1.5,0,1,0,.54-2.05A1.49,1.49,0,0,0,5.77,50.38Z"/><circle class="cls-2" cx="15.84" cy="43" r="1.5"/><path class="cls-2" d="M40.27,3.75a1.5,1.5,0,1,1-2.05-.55A1.5,1.5,0,0,1,40.27,3.75Z"/><path class="cls-2" d="M32.48,9.75a1.5,1.5,0,1,1-.55-2A1.51,1.51,0,0,1,32.48,9.75Z"/><path class="cls-2" d="M25.36,3.13a1.5,1.5,0,1,1-2.05-.55A1.48,1.48,0,0,1,25.36,3.13Z"/><path class="cls-2" d="M6.49,3.75a1.5,1.5,0,0,0,2.6,1.5,1.5,1.5,0,0,0-2.6-1.5Z"/><path class="cls-2" d="M14.79,8.75a1.5,1.5,0,1,0,.55-2A1.5,1.5,0,0,0,14.79,8.75Z"/><circle class="cls-2" cx="47.52" cy="17.5" r="1.5"/><circle class="cls-2" cx="47.5" cy="45" r="1.5"/><path class="cls-2" d="M25.81,39.33a1.5,1.5,0,1,0-2.59,1.5,1.5,1.5,0,1,0,2.59-1.5Z"/><path class="cls-2" d="M17.31,26.33a1.5,1.5,0,1,0-2.59,1.5,1.5,1.5,0,1,0,2.59-1.5Z"/><path class="cls-2" d="M33.55,24.45A1.5,1.5,0,1,0,33,26.5,1.5,1.5,0,0,0,33.55,24.45Z"/><path class="cls-2" d="M24.56,12.83A1.5,1.5,0,1,0,22,14.33a1.5,1.5,0,1,0,2.59-1.5Z"/><path class="cls-2" d="M8.06,12.33a1.5,1.5,0,1,0-2.59,1.5,1.5,1.5,0,1,0,2.59-1.5Z"/><path class="cls-2" d="M40.12,12.25a1.5,1.5,0,1,0-.54,2.05A1.49,1.49,0,0,0,40.12,12.25Z"/><path class="cls-2" d="M8.31,39.33a1.5,1.5,0,1,0-2.59,1.5,1.5,1.5,0,1,0,2.59-1.5Z"/><path class="cls-2" d="M16.81,52.08a1.5,1.5,0,1,0-2.59,1.5,1.5,1.5,0,1,0,2.59-1.5Z"/><path class="cls-2" d="M34.56,52.58A1.5,1.5,0,1,0,32,54.08a1.5,1.5,0,1,0,2.59-1.5Z"/><circle class="cls-2" cx="39.5" cy="41.25" r="1.5"/><circle class="cls-2" cx="46.77" cy="54.75" r="1.5"/><path class="cls-2" d="M47.8,26.2a1.5,1.5,0,1,0-.55,2.05A1.5,1.5,0,0,0,47.8,26.2Z"/><circle class="cls-2" cx="47.48" cy="8" r="1.5"/><circle class="cls-2" cx="45.48" cy="36.25" r="1.5"/><circle class="cls-2" cx="0.75" cy="17.5" r="1.5"/><circle class="cls-2" cx="0.73" cy="45" r="1.5"/><circle class="cls-2" cy="54.75" r="1.5"/><path class="cls-2" d="M1,26.2a1.5,1.5,0,0,0-2-.55,1.51,1.51,0,0,0-.55,2.05,1.51,1.51,0,0,0,2.05.55A1.49,1.49,0,0,0,1,26.2Z"/><circle class="cls-2" cx="0.72" cy="8" r="1.5"/><circle class="cls-2" cx="-1.28" cy="36.25" r="1.5"/><path class="cls-2" d="M16.81-1.93a1.49,1.49,0,0,0-2-.54,1.48,1.48,0,0,0-.55,2,1.49,1.49,0,0,0,2,.55A1.5,1.5,0,0,0,16.81-1.93Z"/><path class="cls-2" d="M34.56-1.43a1.49,1.49,0,0,0-2-.54,1.48,1.48,0,0,0-.55,2A1.49,1.49,0,0,0,34,.62,1.5,1.5,0,0,0,34.56-1.43Z"/><circle class="cls-2" cx="46.77" cy="0.75" r="1.5"/><circle class="cls-2" cy="0.75" r="1.5"/></pattern></defs><g class="cls-3"><g id="Layer_2" data-name="Layer 2"><g id="Layer_1-2" data-name="Layer 1"><g class="cls-4"><path class="cls-5" d="M0,131.49V38A38,38,0,0,1,38,0h93.47a38,38,0,0,1,38,38V169.51H38A38,38,0,0,1,0,131.49Z"/></g></g></g></g></svg>