<svg xmlns="http://www.w3.org/2000/svg" xmlns:xlink="http://www.w3.org/1999/xlink" viewBox="0 0 169.51 169.51"><defs><style>.cls-1,.cls-2{fill:none;}.cls-2{stroke:#cc2e7b;stroke-width:0.3px;}.cls-3{isolation:isolate;}.cls-4{opacity:0.5;mix-blend-mode:soft-light;}.cls-5{fill:url(#Crosses);}</style><pattern id="Crosses" data-name="Crosses" width="57.6" height="57.6" patternTransform="translate(43 -12)" patternUnits="userSpaceOnUse" viewBox="0 0 57.6 57.6"><rect class="cls-1" width="57.6" height="57.6"/><line class="cls-2" x1="52.5" y1="3.6" x2="55.5" y2="3.6"/><line class="cls-2" x1="38.1" y1="3.6" x2="41.1" y2="3.6"/><line class="cls-2" x1="23.7" y1="3.6" x2="26.7" y2="3.6"/><line class="cls-2" x1="9.3" y1="3.6" x2="12.3" y2="3.6"/><line class="cls-2" x1="45.3" y1="10.8" x2="48.3" y2="10.8"/><line class="cls-2" x1="30.9" y1="10.8" x2="33.9" y2="10.8"/><line class="cls-2" x1="16.5" y1="10.8" x2="19.5" y2="10.8"/><line class="cls-2" x1="2.1" y1="10.8" x2="5.1" y2="10.8"/><line class="cls-2" x1="52.5" y1="18" x2="55.5" y2="18"/><line class="cls-2" x1="38.1" y1="18" x2="41.1" y2="18"/><line class="cls-2" x1="23.7" y1="18" x2="26.7" y2="18"/><line class="cls-2" x1="9.3" y1="18" x2="12.3" y2="18"/><line class="cls-2" x1="45.3" y1="25.2" x2="48.3" y2="25.2"/><line class="cls-2" x1="30.9" y1="25.2" x2="33.9" y2="25.2"/><line class="cls-2" x1="16.5" y1="25.2" x2="19.5" y2="25.2"/><line class="cls-2" x1="2.1" y1="25.2" x2="5.1" y2="25.2"/><line class="cls-2" x1="52.5" y1="32.4" x2="55.5" y2="32.4"/><line class="cls-2" x1="38.1" y1="32.4" x2="41.1" y2="32.4"/><line class="cls-2" x1="23.7" y1="32.4" x2="26.7" y2="32.4"/><line class="cls-2" x1="9.3" y1="32.4" x2="12.3" y2="32.4"/><line class="cls-2" x1="45.3" y1="39.6" x2="48.3" y2="39.6"/><line class="cls-2" x1="30.9" y1="39.6" x2="33.9" y2="39.6"/><line class="cls-2" x1="16.5" y1="39.6" x2="19.5" y2="39.6"/><line class="cls-2" x1="2.1" y1="39.6" x2="5.1" y2="39.6"/><line class="cls-2" x1="52.5" y1="46.8" x2="55.5" y2="46.8"/><line class="cls-2" x1="38.1" y1="46.8" x2="41.1" y2="46.8"/><line class="cls-2" x1="23.7" y1="46.8" x2="26.7" y2="46.8"/><line class="cls-2" x1="9.3" y1="46.8" x2="12.3" y2="46.8"/><line class="cls-2" x1="45.3" y1="54" x2="48.3" y2="54"/><line class="cls-2" x1="30.9" y1="54" x2="33.9" y2="54"/><line class="cls-2" x1="16.5" y1="54" x2="19.5" y2="54"/><line class="cls-2" x1="2.1" y1="54" x2="5.1" y2="54"/><line class="cls-2" x1="54" y1="2.1" x2="54" y2="5.1"/><line class="cls-2" x1="39.6" y1="2.1" x2="39.6" y2="5.1"/><line class="cls-2" x1="25.2" y1="2.1" x2="25.2" y2="5.1"/><line class="cls-2" x1="10.8" y1="2.1" x2="10.8" y2="5.1"/><line class="cls-2" x1="46.8" y1="9.3" x2="46.8" y2="12.3"/><line class="cls-2" x1="32.4" y1="9.3" x2="32.4" y2="12.3"/><line class="cls-2" x1="18" y1="9.3" x2="18" y2="12.3"/><line class="cls-2" x1="3.6" y1="9.3" x2="3.6" y2="12.3"/><line class="cls-2" x1="54" y1="16.5" x2="54" y2="19.5"/><line class="cls-2" x1="39.6" y1="16.5" x2="39.6" y2="19.5"/><line class="cls-2" x1="25.2" y1="16.5" x2="25.2" y2="19.5"/><line class="cls-2" x1="10.8" y1="16.5" x2="10.8" y2="19.5"/><line class="cls-2" x1="46.8" y1="23.7" x2="46.8" y2="26.7"/><line class="cls-2" x1="32.4" y1="23.7" x2="32.4" y2="26.7"/><line class="cls-2" x1="18" y1="23.7" x2="18" y2="26.7"/><line class="cls-2" x1="3.6" y1="23.7" x2="3.6" y2="26.7"/><line class="cls-2" x1="54" y1="30.9" x2="54" y2="33.9"/><line class="cls-2" x1="39.6" y1="30.9" x2="39.6" y2="33.9"/><line class="cls-2" x1="25.2" y1="30.9" x2="25.2" y2="33.9"/><line class="cls-2" x1="10.8" y1="30.9" x2="10.8" y2="33.9"/><line class="cls-2" x1="46.8" y1="38.1" x2="46.8" y2="41.1"/><line class="cls-2" x1="32.4" y1="38.1" x2="32.4" y2="41.1"/><line class="cls-2" x1="18" y1="38.1" x2="18" y2="41.1"/><line class="cls-2" x1="3.6" y1="38.1" x2="3.6" y2="41.1"/><line class="cls-2" x1="54" y1="45.3" x2="54" y2="48.3"/><line class="cls-2" x1="39.6" y1="45.3" x2="39.6" y2="48.3"/><line class="cls-2" x1="25.2" y1="45.3" x2="25.2" y2="48.3"/><line class="cls-2" x1="10.8" y1="45.3" x2="10.8" y2="48.3"/><line class="cls-2" x1="46.8" y1="52.5" x2="46.8" y2="55.5"/><line class="cls-2" x1="32.4" y1="52.5" x2="32.4" y2="55.5"/><line class="cls-2" x1="18" y1="52.5" x2="18" y2="55.5"/><line class="cls-2" x1="3.6" y1="52.5" x2="3.6" y2="55.5"/></pattern></defs><g class="cls-3"><g id="Layer_2" data-name="Layer 2"><g id="Layer_1-2" data-name="Layer 1"><g class="cls-4"><path class="cls-5" d="M131.49,169.51H38a38,38,0,0,1-38-38V38A38,38,0,0,1,38,0H169.51V131.49A38,38,0,0,1,131.49,169.51Z"/></g></g></g></g></svg>