<svg xmlns="http://www.w3.org/2000/svg" xmlns:xlink="http://www.w3.org/1999/xlink" viewBox="0 0 169.51 169.51"><defs><style>.cls-1,.cls-2{fill:none;}.cls-2{stroke:#3457e0;stroke-linejoin:round;stroke-width:0.3px;}.cls-3{isolation:isolate;}.cls-4{opacity:0.5;mix-blend-mode:soft-light;}.cls-5{fill:url(#Diagonal_Lines);}</style><pattern id="Diagonal_Lines" data-name="Diagonal Lines" width="72" height="72" patternTransform="translate(44 -57)" patternUnits="userSpaceOnUse" viewBox="0 0 72 72"><rect class="cls-1" width="72" height="72"/><line class="cls-2" x1="64.52" y1="82.52" x2="82.52" y2="64.52"/><line class="cls-2" x1="64.52" y1="88.52" x2="88.52" y2="64.52"/><line class="cls-2" x1="64.52" y1="94.52" x2="94.52" y2="64.52"/><line class="cls-2" x1="64.52" y1="100.52" x2="100.52" y2="64.52"/><line class="cls-2" x1="64.52" y1="106.52" x2="106.52" y2="64.52"/><line class="cls-2" x1="64.52" y1="112.52" x2="112.52" y2="64.52"/><line class="cls-2" x1="64.52" y1="118.52" x2="118.52" y2="64.52"/><line class="cls-2" x1="64.52" y1="124.52" x2="124.52" y2="64.52"/><line class="cls-2" x1="64.52" y1="130.52" x2="130.52" y2="64.52"/><line class="cls-2" x1="64.52" y1="136.52" x2="136.52" y2="64.52"/><line class="cls-2" x1="64.52" y1="142.52" x2="142.52" y2="64.52"/><line class="cls-2" x1="64.52" y1="148.51" x2="148.52" y2="64.52"/><line class="cls-2" x1="70.52" y1="148.51" x2="148.52" y2="70.52"/><line class="cls-2" x1="-7.48" y1="82.52" x2="10.52" y2="64.52"/><line class="cls-2" x1="-7.48" y1="88.52" x2="16.52" y2="64.52"/><line class="cls-2" x1="-7.48" y1="94.52" x2="22.52" y2="64.52"/><line class="cls-2" x1="-7.48" y1="100.52" x2="28.52" y2="64.52"/><line class="cls-2" x1="-7.48" y1="106.52" x2="34.52" y2="64.52"/><line class="cls-2" x1="-7.48" y1="112.52" x2="40.52" y2="64.52"/><line class="cls-2" x1="-7.48" y1="118.52" x2="46.52" y2="64.52"/><line class="cls-2" x1="-7.48" y1="124.52" x2="52.52" y2="64.52"/><line class="cls-2" x1="-7.48" y1="130.52" x2="58.52" y2="64.52"/><line class="cls-2" x1="-7.48" y1="136.52" x2="64.52" y2="64.52"/><line class="cls-2" x1="-7.48" y1="142.52" x2="70.52" y2="64.52"/><line class="cls-2" x1="-7.48" y1="148.51" x2="76.52" y2="64.52"/><line class="cls-2" x1="-1.48" y1="148.51" x2="76.52" y2="70.52"/><line class="cls-2" x1="-79.48" y1="148.51" x2="4.52" y2="64.52"/><line class="cls-2" x1="-73.48" y1="148.51" x2="4.52" y2="70.52"/><line class="cls-2" x1="64.52" y1="10.52" x2="82.52" y2="-7.48"/><line class="cls-2" x1="64.52" y1="16.52" x2="88.52" y2="-7.48"/><line class="cls-2" x1="64.52" y1="22.52" x2="94.52" y2="-7.48"/><line class="cls-2" x1="64.52" y1="28.52" x2="100.52" y2="-7.48"/><line class="cls-2" x1="64.52" y1="34.52" x2="106.52" y2="-7.48"/><line class="cls-2" x1="64.52" y1="40.52" x2="112.52" y2="-7.48"/><line class="cls-2" x1="64.52" y1="46.52" x2="118.52" y2="-7.48"/><line class="cls-2" x1="64.52" y1="52.52" x2="124.52" y2="-7.48"/><line class="cls-2" x1="64.52" y1="58.52" x2="130.52" y2="-7.48"/><line class="cls-2" x1="64.52" y1="64.52" x2="136.52" y2="-7.48"/><line class="cls-2" x1="64.52" y1="70.52" x2="142.52" y2="-7.48"/><line class="cls-2" x1="64.52" y1="76.51" x2="148.52" y2="-7.48"/><line class="cls-2" x1="70.52" y1="76.51" x2="148.52" y2="-1.48"/><line class="cls-2" x1="-7.48" y1="10.52" x2="10.52" y2="-7.48"/><line class="cls-2" x1="-7.48" y1="16.52" x2="16.52" y2="-7.48"/><line class="cls-2" x1="-7.48" y1="22.52" x2="22.52" y2="-7.48"/><line class="cls-2" x1="-7.48" y1="28.52" x2="28.52" y2="-7.48"/><line class="cls-2" x1="-7.48" y1="34.52" x2="34.52" y2="-7.48"/><line class="cls-2" x1="-7.48" y1="40.52" x2="40.52" y2="-7.48"/><line class="cls-2" x1="-7.48" y1="46.52" x2="46.52" y2="-7.48"/><line class="cls-2" x1="-7.48" y1="52.52" x2="52.52" y2="-7.48"/><line class="cls-2" x1="-7.48" y1="58.52" x2="58.52" y2="-7.48"/><line class="cls-2" x1="-7.48" y1="64.52" x2="64.52" y2="-7.48"/><line class="cls-2" x1="-7.48" y1="70.52" x2="70.52" y2="-7.48"/><line class="cls-2" x1="-7.48" y1="76.51" x2="76.52" y2="-7.48"/><line class="cls-2" x1="-1.48" y1="76.51" x2="76.52" y2="-1.48"/><line class="cls-2" x1="4.52" y1="76.51" x2="76.52" y2="4.52"/><line class="cls-2" x1="10.52" y1="76.51" x2="76.52" y2="10.52"/><line class="cls-2" x1="16.52" y1="76.51" x2="76.52" y2="16.52"/><line class="cls-2" x1="22.52" y1="76.51" x2="76.52" y2="22.52"/><line class="cls-2" x1="28.52" y1="76.51" x2="76.52" y2="28.52"/><line class="cls-2" x1="34.52" y1="76.51" x2="76.52" y2="34.52"/><line class="cls-2" x1="40.52" y1="76.51" x2="76.52" y2="40.52"/><line class="cls-2" x1="46.52" y1="76.51" x2="76.52" y2="46.52"/><line class="cls-2" x1="52.52" y1="76.51" x2="76.52" y2="52.52"/><line class="cls-2" x1="58.52" y1="76.51" x2="76.52" y2="58.52"/><line class="cls-2" x1="64.52" y1="76.51" x2="76.52" y2="64.52"/><line class="cls-2" x1="-79.48" y1="76.51" x2="4.52" y2="-7.48"/><line class="cls-2" x1="-73.48" y1="76.51" x2="4.52" y2="-1.48"/><line class="cls-2" x1="-67.48" y1="76.51" x2="4.52" y2="4.52"/><line class="cls-2" x1="-61.48" y1="76.51" x2="4.52" y2="10.52"/><line class="cls-2" x1="-55.48" y1="76.51" x2="4.52" y2="16.52"/><line class="cls-2" x1="-49.48" y1="76.51" x2="4.52" y2="22.52"/><line class="cls-2" x1="-43.48" y1="76.51" x2="4.52" y2="28.52"/><line class="cls-2" x1="-37.48" y1="76.51" x2="4.52" y2="34.52"/><line class="cls-2" x1="-31.48" y1="76.51" x2="4.52" y2="40.52"/><line class="cls-2" x1="-25.48" y1="76.51" x2="4.52" y2="46.52"/><line class="cls-2" x1="-19.48" y1="76.51" x2="4.52" y2="52.52"/><line class="cls-2" x1="-13.48" y1="76.51" x2="4.52" y2="58.52"/><line class="cls-2" x1="-7.48" y1="76.51" x2="4.52" y2="64.52"/><line class="cls-2" x1="64.52" y1="4.51" x2="148.52" y2="-79.48"/><line class="cls-2" x1="70.52" y1="4.51" x2="148.52" y2="-73.48"/><line class="cls-2" x1="-7.48" y1="4.51" x2="76.52" y2="-79.48"/><line class="cls-2" x1="-1.48" y1="4.51" x2="76.52" y2="-73.48"/><line class="cls-2" x1="4.52" y1="4.51" x2="76.52" y2="-67.48"/><line class="cls-2" x1="10.52" y1="4.51" x2="76.52" y2="-61.48"/><line class="cls-2" x1="16.52" y1="4.51" x2="76.52" y2="-55.48"/><line class="cls-2" x1="22.52" y1="4.51" x2="76.52" y2="-49.48"/><line class="cls-2" x1="28.52" y1="4.51" x2="76.52" y2="-43.48"/><line class="cls-2" x1="34.52" y1="4.51" x2="76.52" y2="-37.48"/><line class="cls-2" x1="40.52" y1="4.51" x2="76.52" y2="-31.48"/><line class="cls-2" x1="46.52" y1="4.51" x2="76.52" y2="-25.48"/><line class="cls-2" x1="52.52" y1="4.51" x2="76.52" y2="-19.48"/><line class="cls-2" x1="58.52" y1="4.51" x2="76.52" y2="-13.48"/><line class="cls-2" x1="64.52" y1="4.51" x2="76.52" y2="-7.48"/><line class="cls-2" x1="-79.48" y1="4.51" x2="4.52" y2="-79.48"/><line class="cls-2" x1="-73.48" y1="4.51" x2="4.52" y2="-73.48"/><line class="cls-2" x1="-67.48" y1="4.51" x2="4.52" y2="-67.48"/><line class="cls-2" x1="-61.48" y1="4.51" x2="4.52" y2="-61.48"/><line class="cls-2" x1="-55.48" y1="4.51" x2="4.52" y2="-55.48"/><line class="cls-2" x1="-49.48" y1="4.51" x2="4.52" y2="-49.48"/><line class="cls-2" x1="-43.48" y1="4.51" x2="4.52" y2="-43.48"/><line class="cls-2" x1="-37.48" y1="4.51" x2="4.52" y2="-37.48"/><line class="cls-2" x1="-31.48" y1="4.51" x2="4.52" y2="-31.48"/><line class="cls-2" x1="-25.48" y1="4.51" x2="4.52" y2="-25.48"/><line class="cls-2" x1="-19.48" y1="4.51" x2="4.52" y2="-19.48"/><line class="cls-2" x1="-13.48" y1="4.51" x2="4.52" y2="-13.48"/><line class="cls-2" x1="-7.48" y1="4.51" x2="4.52" y2="-7.48"/></pattern></defs><g class="cls-3"><g id="Layer_2" data-name="Layer 2"><g id="Layer_1-2" data-name="Layer 1"><g class="cls-4"><path class="cls-5" d="M169.51,38v93.47a38,38,0,0,1-38,38H38a38,38,0,0,1-38-38V0H131.49A38,38,0,0,1,169.51,38Z"/></g></g></g></g></svg>